<svg id="Layer_1" data-name="Layer 1" xmlns="http://www.w3.org/2000/svg" viewBox="0 0 779 510.41"><defs><style>.cls-1{fill:#231f20;}</style></defs><title>CB-logo-black</title><path class="cls-1" d="M369.85,453c-111.06,0-201.09-90-201.09-201.09S258.79,50.8,369.85,50.8A201.64,201.64,0,0,1,409,54.63,248.72,248.72,0,0,0,255.83,2.13C117.85,2.13,6,114,6,252S117.85,501.78,255.83,501.78A248.71,248.71,0,0,0,409.28,449.1,202.4,202.4,0,0,1,369.85,453Z" transform="translate(-6 8.3)"/><path class="cls-1" d="M594.63-7.91q-5.82-.39-11.74-.39" transform="translate(-6 8.3)"/><path class="cls-1" d="M725.45,236.11c21.44-24.32,34.17-54.69,34.17-87.62,0-76.07-67.91-138.41-154.16-144.17Q599,3.89,592.4,3.88H421.25V502.11H605.46l3.84,0c97,0,175.7-68.12,175.7-152C785,304.68,762,263.94,725.45,236.11ZM548.38,479.68,620,339.15,461.36,365.92,592.89,186.69,467.53,207.46,621.08,18.31,557.29,160,706,140,591.41,308,717.5,289.79Z" transform="translate(-6 8.3)"/></svg>